<svg id="Layer_1" data-name="Layer 1" xmlns="http://www.w3.org/2000/svg" viewBox="0 0 164.45 58.98"><defs><style>.cls-1{fill:#fff27b;stroke:#323232;stroke-miterlimit:10;stroke-width:0.5px;}</style></defs><path class="cls-1" d="M25.84,56.42l6.21,1.8.55-.39-.16-34.65h10.2l-.16,33.2,6.29,1.84.55-.39-.16-34.65H67.91a12.15,12.15,0,0,1,.31,3c0,2.89-.58,4.65-1.44,5.78-1.21-.12-3-.16-4.85-.16a4,4,0,0,0-3.67,1.64,4.18,4.18,0,0,0-.66,2.19,10.19,10.19,0,0,0,1.48,4C62.79,46.5,69,52.79,77,58.73h.59l3-6.64c-6-2.89-11.17-6.06-14.41-9.57,5-2.78,8.52-6.72,8.52-14.54a25.42,25.42,0,0,0-.43-4.8h32.07v5.43a40.18,40.18,0,0,0-9.85-1.45c-8.12,0-12,4.3-12,9.46,0,2.15.82,4.76,3.24,7.85,3.24,4.06,7,5.86,11.21,5.86a14.52,14.52,0,0,0,7.39-2l-.16,8.12,6.21,1.8.55-.39-.16-34.65H123l-.16,33.2,6.29,1.84.55-.39-.16-34.65h18.75a12.15,12.15,0,0,1,.31,3c0,2.89-.58,4.65-1.44,5.78-1.21-.12-3-.16-4.85-.16a4,4,0,0,0-3.67,1.64A4.18,4.18,0,0,0,138,35.6a10.19,10.19,0,0,0,1.48,4c3.71,6.87,10,13.16,17.93,19.1H158l3-6.64c-6.06-2.89-11.18-6.06-14.42-9.57,5-2.78,8.52-6.72,8.52-14.54a25.42,25.42,0,0,0-.43-4.8h9l.55-.74-2.66-5.35H47.71a7,7,0,0,1-.62-3c0-4.49,3.28-7.58,8-7.58,5.19,0,10,3.32,14.88,9.06h.51l1.6-2.54C65.33,5.13,58.73.25,52.24.25c-7,0-11.36,5.08-11.36,9.84a10.3,10.3,0,0,0,2.93,7H.84l-.55.74L3,23.18H6.58c-.08,2.11-.12,4.45-.12,7,0,8.36,1.88,11.29,6.57,14.65a13.25,13.25,0,0,0,7.61,2.74A10.13,10.13,0,0,0,26,46Zm80.58-19.06a4.56,4.56,0,0,1-2,3.87A12.22,12.22,0,0,1,96.62,44c-4,0-5.74-1.6-5.74-3.71,0-3.75,3.32-6.87,9.69-6.87a26.65,26.65,0,0,1,5.85.62ZM23.65,39a10,10,0,0,1-6,2.5c-4.07,0-4.3-4-4.3-11.06,0-2.77,0-5.27.12-7.3H26.07V33.84A6.39,6.39,0,0,1,23.65,39Z"/></svg>